<?xml version="1.0" standalone="no"?>
<!DOCTYPE svg PUBLIC "-//W3C//DTD SVG 20010904//EN"
 "http://www.w3.org/TR/2001/REC-SVG-20010904/DTD/svg10.dtd">
<svg version="1.0" xmlns="http://www.w3.org/2000/svg"
 width="2022.000000pt" height="2022.000000pt" viewBox="0 0 2022.000000 2022.000000"
 preserveAspectRatio="xMidYMid meet">
<metadata>
Created by potrace 1.11, written by Peter Selinger 2001-2013
</metadata>
<g transform="translate(0.000000,2022.000000) scale(0.100000,-0.100000)"
fill="#000000" stroke="none">
<path d="M2957 17262 l-2957 -2957 0 -4200 0 -4200 2953 -2953 2952 -2952
4205 0 4205 0 2953 2953 2952 2952 0 4205 0 4205 -2953 2953 -2952 2952 -4200
0 -4200 0 -2958 -2958z"/>
<path d="M17640 17645 c1416 -1416 2576 -2575 2577 -2575 2 0 3 1159 3 2575
l0 2575 -2577 0 -2578 0 2575 -2575z"/>
</g>
</svg>
