<svg enable-background="new 0 0 90 90" viewBox="0 0 90 90" xmlns="http://www.w3.org/2000/svg"><path d="m89.9 13.7s-14 0-18.6 0l-1.3.2v1.8c0 .2.6.4.8.5s.6.2.8.2l1.7.1c1.9.1 2.5.5 3.2 1.2s.9 2 .3 3.7l-16.4 42.9-.6-.2-10.5-23.4c.2-.4.2-.6.2-.6l8.6-17.6c1-1.9 2-3.5 2.4-4.3.9-1.4 1.3-1.7 3.8-1.8.5 0 .7-.2.7-.7v-1.8l-.1-.2s-10.2 0-14.9 0v.2 1.8c0 .2-.1.4 0 .5.2.1.3.2.4.2l.7.1c1.9.1 2.8.6 3 1 .5.6.7 1.3-.4 3.9l-6.6 14.4-6-13.4c-2-4.3-2.4-5.6.5-5.8l.8-.2c.6 0 .5-.2.5-.6v-1.9l-.1-.2s-10.9 0-15.9 0l.1.3v1.9c0 .4.4.5 1.2.6 2.8.4 2.7.7 5.4 6.6.4.9 1.6 3.6 1.6 3.6l6.2 13.4s.7 1.7 1.8 4.4l-9 19.8-.5-.1s-14-32.4-18-43.3c-.4-1.1-.6-2-.6-2.5 0-1.1.9-1.7 2.7-1.8l2.8-.1c.6 0 1.5-.2 1.5-.7v-1.8l-.8-.2s-17.1 0-20.6 0l-.7.2v1.9c0 .3.4.5 1.2.6 2.1.1 3.6.5 4.2 1.1.7.6 1.4 2.2 2.3 4.7 5.1 13.4 15.9 37.4 21.2 51 1.5 3.7 3.4 4.3 5.7-.1 2.4-4.8 7.2-15.6 10.7-23.6 3.3 7.9 7.7 18.6 9.9 23.5 1.7 3.9 3.7 4.3 5.6.1 5.2-12.7 20.3-50.7 20.3-50.7.7-1.9 1.6-3.3 2.7-4.4 1.2-1 2.9-1.6 5.3-1.7.5 0 .7-.2.7-.7v-1.8z"/></svg>